<svg width="22" height="22" viewBox="0 0 22 22" fill="none" xmlns="http://www.w3.org/2000/svg">
<path d="M17.4167 4.3999C17.9029 4.3999 18.3692 4.59306 18.713 4.93687C19.0568 5.28069 19.25 5.74701 19.25 6.23324V19.0666C19.25 19.5528 19.0568 20.0191 18.713 20.3629C18.3692 20.7067 17.9029 20.8999 17.4167 20.8999H4.58333C4.0971 20.8999 3.63079 20.7067 3.28697 20.3629C2.94315 20.0191 2.75 19.5528 2.75 19.0666V6.23324C2.75 5.74701 2.94315 5.28069 3.28697 4.93687C3.63079 4.59306 4.0971 4.3999 4.58333 4.3999H17.4167ZM16.9583 18.6082V13.7499C16.9583 12.9573 16.6435 12.1973 16.0831 11.6368C15.5226 11.0764 14.7626 10.7616 13.97 10.7616C13.1908 10.7616 12.2833 11.2382 11.8433 11.9532V10.9357H9.28583V18.6082H11.8433V14.0891C11.8433 13.3832 12.4117 12.8057 13.1175 12.8057C13.4579 12.8057 13.7843 12.9409 14.025 13.1816C14.2656 13.4223 14.4008 13.7487 14.4008 14.0891V18.6082H16.9583ZM6.30667 9.49657C6.7151 9.49657 7.10681 9.33432 7.39561 9.04551C7.68442 8.75671 7.84667 8.365 7.84667 7.95657C7.84667 7.10407 7.15917 6.4074 6.30667 6.4074C5.8958 6.4074 5.50177 6.57062 5.21124 6.86114C4.92072 7.15167 4.7575 7.5457 4.7575 7.95657C4.7575 8.80907 5.45417 9.49657 6.30667 9.49657ZM7.58083 18.6082V10.9357H5.04167V18.6082H7.58083Z" fill="#292B2C"/>
</svg>
