<svg width="200" height="200" viewBox="0 0 200 200" fill="none" xmlns="http://www.w3.org/2000/svg">
<rect width="200" height="200" rx="100" fill="#F5F5F5"/>
<path d="M73.908 98.76C77.324 99.488 80.068 101.196 82.14 103.884C84.212 106.516 85.248 109.54 85.248 112.956C85.248 117.884 83.512 121.804 80.04 124.716C76.624 127.572 71.836 129 65.676 129H38.208V70.032H64.752C70.744 70.032 75.42 71.404 78.78 74.148C82.196 76.892 83.904 80.616 83.904 85.32C83.904 88.792 82.98 91.676 81.132 93.972C79.34 96.268 76.932 97.864 73.908 98.76ZM52.572 93.888H61.98C64.332 93.888 66.124 93.384 67.356 92.376C68.644 91.312 69.288 89.772 69.288 87.756C69.288 85.74 68.644 84.2 67.356 83.136C66.124 82.072 64.332 81.54 61.98 81.54H52.572V93.888ZM63.156 117.408C65.564 117.408 67.412 116.876 68.7 115.812C70.044 114.692 70.716 113.096 70.716 111.024C70.716 108.952 70.016 107.328 68.616 106.152C67.272 104.976 65.396 104.388 62.988 104.388H52.572V117.408H63.156ZM90.7231 105.48C90.7231 100.664 91.6191 96.436 93.4111 92.796C95.2591 89.156 97.7511 86.356 100.887 84.396C104.023 82.436 107.523 81.456 111.387 81.456C114.691 81.456 117.575 82.128 120.039 83.472C122.559 84.816 124.491 86.58 125.835 88.764V82.128H140.199V129H125.835V122.364C124.435 124.548 122.475 126.312 119.955 127.656C117.491 129 114.607 129.672 111.303 129.672C107.495 129.672 104.023 128.692 100.887 126.732C97.7511 124.716 95.2591 121.888 93.4111 118.248C91.6191 114.552 90.7231 110.296 90.7231 105.48ZM125.835 105.564C125.835 101.98 124.827 99.152 122.811 97.08C120.851 95.008 118.443 93.972 115.587 93.972C112.731 93.972 110.295 95.008 108.279 97.08C106.319 99.096 105.339 101.896 105.339 105.48C105.339 109.064 106.319 111.92 108.279 114.048C110.295 116.12 112.731 117.156 115.587 117.156C118.443 117.156 120.851 116.12 122.811 114.048C124.827 111.976 125.835 109.148 125.835 105.564Z" fill="#292B2C"/>
<circle cx="156" cy="119" r="10" fill="#2178F1"/>
</svg>
